<!DOCTYPE svg PUBLIC "-//W3C//DTD SVG 20010904//EN" "http://www.w3.org/TR/2001/REC-SVG-20010904/DTD/svg10.dtd">
<svg version="1.0" xmlns="http://www.w3.org/2000/svg" width="640px" height="218px" viewBox="0 0 6400 2180" preserveAspectRatio="xMidYMid meet">
<g id="layer101" fill="#000000" stroke="none">
<path d="M4320 1515 c0 -140 2 -165 15 -165 8 0 15 7 15 15 0 20 5 19 40 -6 78 -58 183 45 150 146 -23 70 -101 97 -161 54 l-29 -21 6 71 c7 68 6 71 -15 71 -21 0 -21 -3 -21 -165z m169 9 c28 -35 28 -97 1 -124 -61 -61 -154 -5 -134 83 15 68 93 92 133 41z"/>
<path d="M3200 1410 l0 -170 95 0 c88 0 95 1 95 20 0 18 -7 20 -75 20 l-75 0 0 55 0 55 70 0 c63 0 70 2 70 20 0 18 -7 20 -70 20 l-70 0 0 55 0 55 75 0 c68 0 75 2 75 20 0 19 -7 20 -95 20 l-95 0 0 -170z"/>
<path d="M3430 1574 c0 -4 16 -28 35 -54 19 -26 35 -53 35 -59 0 -6 -16 -33 -36 -61 -32 -45 -34 -50 -16 -50 12 0 32 17 50 41 l30 40 28 -40 c19 -27 37 -41 52 -41 21 0 20 3 -18 55 l-41 56 34 47 c50 69 51 72 28 72 -13 0 -32 -17 -52 -46 l-31 -46 -30 46 c-18 28 -38 46 -49 46 -11 0 -19 -3 -19 -6z"/>
<path d="M3682 1560 c-29 -27 -29 -80 -1 -106 16 -14 35 -19 80 -18 65 1 75 -10 39 -46 -24 -24 -57 -26 -88 -4 -22 15 -42 12 -42 -7 0 -18 71 -41 105 -35 58 11 73 39 77 144 3 82 1 92 -14 92 -12 0 -18 -8 -18 -22 l0 -21 -23 21 c-30 29 -86 29 -115 2z m115 -32 c41 -39 26 -68 -36 -68 -31 0 -71 25 -71 45 0 44 69 59 107 23z"/>
<path d="M3910 1465 c0 -108 1 -115 20 -115 12 0 20 7 20 17 0 15 2 15 18 0 32 -29 71 -32 104 -7 29 21 30 21 50 4 30 -28 95 -25 119 5 16 19 19 40 19 117 0 77 -3 94 -15 94 -12 0 -15 -14 -15 -64 0 -123 -22 -160 -82 -137 -34 13 -46 55 -40 139 4 58 3 62 -17 62 -20 0 -21 -5 -21 -85 0 -72 -3 -88 -20 -105 -26 -26 -46 -25 -75 5 -22 22 -25 32 -25 105 0 73 -2 80 -20 80 -19 0 -20 -7 -20 -115z"/>
<path d="M4590 1410 c0 -163 1 -170 20 -170 19 0 20 7 20 170 0 163 -1 170 -20 170 -19 0 -20 -7 -20 -170z"/>
<path d="M4729 1565 c-56 -30 -69 -130 -23 -184 62 -74 184 -32 184 64 0 25 -1 25 -90 25 -100 0 -111 9 -65 55 30 31 77 33 105 5 21 -21 56 -16 42 6 -28 42 -103 56 -153 29z m122 -147 c-4 -13 -20 -29 -35 -36 -35 -17 -78 -2 -94 34 l-12 24 75 0 c73 0 74 0 66 -22z"/>
<path d="M3039 1066 c-59 -20 -71 -50 -77 -185 l-5 -121 42 0 41 0 0 103 c0 112 7 132 51 142 19 5 34 0 55 -18 28 -24 29 -29 32 -126 l4 -101 34 0 34 0 0 155 0 155 -35 0 c-28 0 -35 -4 -35 -20 0 -25 -12 -25 -34 -1 -22 24 -65 31 -107 17z"/>
<path d="M3774 1070 c-60 -16 -74 -47 -74 -159 l0 -91 -30 0 c-27 0 -30 -3 -30 -30 0 -27 3 -30 30 -30 29 0 30 -1 30 -50 l0 -50 35 0 35 0 0 50 0 50 40 0 c38 0 40 2 40 30 0 28 -2 30 -40 30 l-40 0 0 79 c0 70 3 82 21 95 12 8 27 12 35 9 12 -4 34 32 34 57 0 10 -60 17 -86 10z"/>
<path d="M4722 1068 c-57 -16 -72 -54 -72 -190 l0 -118 35 0 35 0 0 96 c0 100 7 127 41 145 28 15 73 -4 88 -37 6 -14 11 -65 11 -114 l0 -90 40 0 40 0 0 155 0 155 -35 0 c-28 0 -35 -4 -35 -20 0 -25 -4 -25 -38 -1 -35 25 -69 31 -110 19z"/>
<path d="M5123 1068 c-52 -14 -63 -39 -63 -150 l0 -98 -30 0 c-27 0 -30 -3 -30 -30 0 -27 3 -30 30 -30 29 0 30 -1 30 -50 l0 -50 35 0 35 0 0 50 0 50 40 0 c38 0 40 2 40 30 0 28 -2 30 -40 30 l-40 0 0 78 c0 88 7 105 43 105 20 0 28 7 36 29 8 21 7 30 -2 33 -34 10 -55 11 -84 3z"/>
<path d="M2520 845 l0 -225 49 0 49 0 88 150 c49 82 93 150 98 150 5 0 7 -63 3 -150 l-6 -150 39 0 40 0 0 225 0 225 -40 0 -39 0 -98 -165 c-54 -90 -101 -165 -104 -165 -3 0 -3 74 -1 165 l5 165 -42 0 -41 0 0 -225z"/>
<path d="M3310 1064 c0 -3 23 -39 51 -80 l51 -73 -44 -63 c-66 -93 -65 -88 -15 -88 43 0 47 3 74 45 15 25 30 45 33 45 3 0 16 -20 30 -45 24 -44 26 -45 73 -45 l49 0 -38 53 c-21 28 -46 62 -56 75 -17 23 -16 25 31 90 69 97 68 92 18 92 -43 0 -47 -3 -74 -45 -15 -25 -32 -45 -36 -45 -4 0 -20 20 -35 45 -25 41 -30 44 -69 45 -24 0 -43 -3 -43 -6z"/>
<path d="M4180 1068 c0 -2 38 -102 84 -223 l83 -220 49 -3 49 -3 83 218 c45 120 82 222 82 226 0 5 -19 7 -41 5 -40 -3 -43 -5 -62 -55 l-20 -53 -92 0 -91 0 -18 55 -17 55 -45 0 c-24 0 -44 -1 -44 -2z m251 -273 c-14 -47 -29 -85 -33 -85 -6 0 -58 145 -58 163 0 4 26 7 59 7 l59 0 -27 -85z"/>
<path d="M5280 845 l0 -225 41 0 42 0 -6 90 c-3 50 -3 90 1 90 3 0 16 -9 28 -21 27 -26 91 -34 124 -17 46 24 60 71 60 196 l0 112 -41 0 -41 0 7 -87 c7 -88 -2 -139 -28 -155 -26 -16 -66 -8 -86 18 -18 23 -21 41 -21 125 l0 99 -40 0 -40 0 0 -225z"/>
<path d="M3920 875 l0 -35 105 0 105 0 0 35 0 35 -105 0 -105 0 0 -35z"/>
</g>
<g id="layer102" fill="#2f4a5f" stroke="none">
<path d="M243 1874 c-44 -22 -68 -75 -55 -124 7 -29 642 -1170 818 -1470 39 -68 67 -84 133 -81 42 2 95 72 205 274 59 108 111 195 116 192 4 -2 26 -36 49 -74 50 -84 91 -121 135 -121 67 0 88 26 268 350 93 168 246 442 340 610 194 347 199 363 140 422 l-32 33 -1043 2 c-931 2 -1045 1 -1074 -13z m615 -141 c5 -16 124 -229 265 -475 l256 -447 -127 -230 c-70 -126 -130 -227 -134 -225 -4 2 -20 28 -36 57 -48 88 -528 940 -643 1143 -60 105 -109 194 -109 198 0 3 117 6 259 6 l259 0 10 -27z m831 -375 c-127 -222 -231 -404 -233 -405 -3 -3 -456 792 -456 800 0 4 207 7 459 7 l460 0 -230 -402z m587 386 c-5 -12 -398 -717 -598 -1072 -17 -29 -31 -52 -33 -50 -2 2 -28 45 -58 97 l-55 93 256 447 c140 245 260 458 266 474 l10 27 109 0 c95 0 108 -2 103 -16z"/>
</g>
<g id="layer103" fill="#168978" stroke="none">
<path d="M243 1874 c-44 -22 -68 -75 -55 -124 7 -29 642 -1170 818 -1470 39 -68 67 -84 133 -81 42 2 95 72 205 274 59 108 111 195 116 192 4 -2 26 -36 49 -74 50 -84 91 -121 135 -121 67 0 88 26 268 350 93 168 246 442 340 610 194 347 199 363 140 422 l-32 33 -193 3 -192 3 32 -20 c37 -23 53 -49 53 -85 l0 -26 111 0 c97 0 110 -2 105 -16 -5 -12 -398 -717 -598 -1072 -17 -29 -31 -52 -33 -50 -2 2 -28 45 -58 97 l-55 93 -37 -66 -37 -67 -36 61 c-20 33 -39 60 -43 60 -4 0 -62 -101 -130 -224 -68 -123 -127 -222 -131 -220 -4 2 -20 28 -36 57 -48 88 -528 940 -643 1143 -60 105 -109 194 -109 198 0 3 116 6 258 6 l258 0 10 42 c7 32 18 48 43 65 l34 23 -329 0 c-278 0 -334 -3 -361 -16z"/>
</g>
<g id="layer104" fill="#06c490" stroke="none">
<path d="M243 1874 c-44 -22 -68 -75 -55 -124 7 -29 642 -1170 818 -1470 39 -67 67 -85 132 -81 43 2 91 64 198 261 59 107 114 201 122 208 9 6 11 12 4 12 -6 0 -25 27 -43 60 -17 33 -35 60 -39 60 -4 0 -63 -101 -131 -224 -68 -123 -127 -222 -131 -220 -4 2 -20 28 -36 57 -48 88 -528 940 -643 1143 -60 105 -109 194 -109 198 0 3 116 6 258 6 l258 0 10 42 c7 32 18 48 43 65 l34 23 -329 0 c-278 0 -334 -3 -361 -16z"/>
</g>


</svg>